{
  "title": "Sultan (2016) 720p mHD DVDSCR x264 AAC 5.1 -DDR-Exclusive",
  "uid": 15291774,
  "size": 1578726623,
  "categoryP": "video",
  "categoryS": "hd___movies",
  "magnet": "?xt=urn:btih:eeaa629dfa2a0e83b0e98cbf6e00e740969b24ca&amp;dn=Sultan+%282016%29+720p+mHD+DVDSCR+x264+AAC+5.1+-DDR-Exclusive&amp;tr=udp%3A%2F%2Ftracker.leechers-paradise.org%3A6969&amp;tr=udp%3A%2F%2Fzer0day.ch%3A1337&amp;tr=udp%3A%2F%2Fopen.demonii.com%3A1337&amp;tr=udp%3A%2F%2Ftracker.coppersurfer.tk%3A6969&amp;tr=udp%3A%2F%2Fexodus.desync.com%3A6969",
  "seeders": 61,
  "leechers": 7,
  "uploader": "SaM",
  "files": 3,
  "time": 1468427993,
  "description": "- BollywooD MoviE -\r\n**- SULTAN -**\r\n- 2016 -\r\n** 720p mHD DvDSCR Rip / x264 / AAC 5.1 **\r\n\r\n ~* SCREENSHOTS *~\r\n \nhttp://extraimago.com/image/a6Og \nhttp://extraimago.com/image/a6OX \nhttp://extraimago.com/image/a6OP \nhttp://extraimago.com/image/a6OG \nhttp://extraimago.com/image/a6Or \nhttp://extraimago.com/image/a6Op \nhttp://extraimago.com/image/a6OY \nhttp://extraimago.com/image/a6OC \nhttp://extraimago.com/image/a6OB \nhttp://extraimago.com/image/a6O4 \nhttp://extraimago.com/image/a6Oe \nhttp://extraimago.com/image/a6OZ\r\n\r\n[ Specs ]\r\nGeneral\r\nSource = DesiSCR MP4 @ Junaiq\r\n\r\nFormat : Matroska\r\nFile size : 1.46 GiB\r\nDuration : 2h 49mn\r\nOverall bit rate : 1 236 Kbps\r\nEncoded date : UTC 2016-07-13 14:07:30\r\n\r\nVideo\r\nFormat : AVC\r\nFormat/Info : Advanced Video Codec\r\nFormat profile :   \r\nFormat settings, CABAC : Yes\r\nFormat settings, ReFrames : 8 frames\r\nCodec ID : V_MPEG4/ISO/AVC\r\nDuration : 2h 49mn\r\nBit rate : 1 042 Kbps\r\nWidth : 1 280 pixels\r\nHeight : 544 pixels\r\nDisplay aspect ratio : 2.35:1\r\nFrame rate mode : Constant\r\nFrame rate : 23.976 (24000/1001) fps\r\nColor space : YUV\r\nChroma subsampling : 4:2:0\r\nBit depth : 8 bits\r\nScan type : Progressive\r\nBits/(Pixel*Frame) : 0.062\r\nStream size : 1.23 GiB (84%)\r\nLanguage : English\r\nDefault : Yes\r\nForced : No\r\nColor range : Limited\r\nColor primaries : BT.709\r\n\r\n\r\nAudio\r\nFormat : AAC\r\nFormat profile : LC\r\nCodec ID : A_AAC\r\nDuration : 2h 49mn\r\nBit rate : 192 Kbps\r\nChannel(s) : 6 channels\r\nChannel positions : Front: L C R, Side: L R, LFE\r\nSampling rate : 48.0 KHz\r\nFrame rate : 46.875 fps (1024 spf)\r\nCompression mode : Lossy\r\nDelay relative to video : 9ms\r\nStream size : 232 MiB (16%)\r\nDefault : Yes\r\nForced : No\r\nLanguage : Hindi\r\n\r\n\r\nChapters: None on source\r\nSAMPLE : Included\r\n\r\nA DDR Exclusive Release...!\r\n\r\nHQ 720p rip in few hours + SD rips in few mins",
  "parsed": {
    "xt": "urn:btih:eeaa629dfa2a0e83b0e98cbf6e00e740969b24ca",
    "dn": "Sultan (2016) 720p mHD DVDSCR x264 AAC 5.1 -DDR-Exclusive",
    "tr": [
      "udp://exodus.desync.com:6969",
      "udp://open.demonii.com:1337",
      "udp://tracker.coppersurfer.tk:6969",
      "udp://tracker.leechers-paradise.org:6969",
      "udp://zer0day.ch:1337"
    ],
    "infoHash": "eeaa629dfa2a0e83b0e98cbf6e00e740969b24ca",
    "infoHashBuffer": {
      "type": "Buffer",
      "data": [
        238,
        170,
        98,
        157,
        250,
        42,
        14,
        131,
        176,
        233,
        140,
        191,
        110,
        0,
        231,
        64,
        150,
        155,
        36,
        202
      ]
    },
    "name": "Sultan (2016) 720p mHD DVDSCR x264 AAC 5.1 -DDR-Exclusive",
    "announce": [
      "udp://exodus.desync.com:6969",
      "udp://open.demonii.com:1337",
      "udp://tracker.coppersurfer.tk:6969",
      "udp://tracker.leechers-paradise.org:6969",
      "udp://zer0day.ch:1337"
    ],
    "urlList": []
  },
  "previous": 68,
  "peers": 158,
  "last_updated": "2016-12-25T17:33:07.159Z"
}